Coordinates
version=1
nRows=17
nColumns=40
inDegrees=yes

Units are S.I. units (second, meters, Newtons, ...)
Angles are in degrees.

endheader
time	pelvis_tilt	pelvis_list	pelvis_rotation	pelvis_tx	pelvis_ty	pelvis_tz	hip_flexion_r	hip_adduction_r	hip_rotation_r	knee_angle_r	knee_angle_r_beta	ankle_angle_r	subtalar_angle_r	mtp_angle_r	hip_flexion_l	hip_adduction_l	hip_rotation_l	knee_angle_l	knee_angle_l_beta	ankle_angle_l	subtalar_angle_l	mtp_angle_l	lumbar_extension	lumbar_bending	lumbar_rotation	arm_flex_r	arm_add_r	arm_rot_r	elbow_flex_r	pro_sup_r	wrist_flex_r	wrist_dev_r	arm_flex_l	arm_add_l	arm_rot_l	elbow_flex_l	pro_sup_l	wrist_flex_l	wrist_dev_l
     36.74250000	     -5.02154886	     -3.46231275	      4.27075532	      1.06734468	      0.91342305	      0.44430768	     -2.97829285	     -2.88355048	    -16.30502345	     27.48873365	     27.48873365	     14.35095389	      2.82108186	    -16.76966322	     30.78264319	     -3.56734362	     -2.48311738	     27.18059175	     27.18059175	      5.09770370	    -16.49552455	      8.45604598	     -8.12432293	      5.88514899	      5.84145171	     45.26768489	    -16.61317187	     -3.44820402	    109.80815331	     43.96899077	      0.00000000	      0.00000000	    -17.13208174	     -5.78809737	      4.58593062	     22.74782826	     44.85234807	      0.00000000	      0.00000000
     36.75400000	     -5.10552715	     -3.26398146	      4.13495219	      1.06830405	      0.91474298	      0.44091976	     -1.47940783	     -4.05523100	    -15.84500347	     31.17898900	     31.17898900	     12.45247717	      1.90406265	    -18.30347539	     30.13050262	     -3.24865747	     -2.68828596	     27.28200535	     27.28200535	      5.87315337	    -16.53259825	      8.31740784	     -7.98059739	      5.88220879	      5.66087632	     43.60075186	    -16.73042837	     -3.61288243	    109.03068083	     44.00294229	      0.00000000	      0.00000000	    -16.02515444	     -5.66010777	      4.53838657	     23.41145574	     44.88812984	      0.00000000	      0.00000000
     36.76550000	     -5.05401321	     -3.14038646	      4.00737160	      1.06928605	      0.91621073	      0.43768747	     -0.04569230	     -5.08274792	    -15.25878030	     34.84113224	     34.84113224	     10.08690979	      0.79033977	    -19.84025570	     29.30481470	     -3.01696379	     -2.88481237	     27.33692192	     27.33692192	      6.70790919	    -16.53291567	      8.17986340	     -7.97829338	      5.92409984	      5.53259238	     41.73817088	    -16.78525538	     -3.90360859	    108.05128337	     44.04588379	      0.00000000	      0.00000000	    -14.84187880	     -5.59878759	      4.42078422	     24.23818956	     44.93577679	      0.00000000	      0.00000000
     36.77700000	     -4.98061914	     -3.06256305	      3.86440507	      1.07008630	      0.91760771	      0.43468662	      1.54698478	     -6.01976006	    -14.55479706	     38.62669587	     38.62669587	      7.38382017	     -0.55173862	    -21.05593889	     28.43218908	     -2.85911321	     -3.10955588	     27.31365281	     27.31365281	      7.46524480	    -16.41433137	      8.01444244	     -8.01406546	      6.00427168	      5.42187302	     39.77241275	    -16.79170423	     -4.29124109	    106.83399971	     44.09779385	      0.00000000	      0.00000000	    -13.59133528	     -5.57090202	      4.24261454	     25.20948525	     44.99246777	      0.00000000	      0.00000000
     36.78850000	     -4.95256199	     -3.14884641	      3.75283030	      1.07068502	      0.91890810	      0.43194345	      3.22449915	     -6.53720043	    -13.53722153	     42.04359297	     42.04359297	      3.44446897	     -3.41106923	    -24.36058446	     27.63999606	     -2.87331085	     -3.28124971	     27.29183561	     27.29183561	      8.33145052	    -16.10556173	      8.05593720	     -8.01236816	      6.24512154	      5.33100587	     37.75056010	    -16.36625544	     -5.99231972	    104.96140167	     44.25905894	      0.00000000	      0.00000000	    -12.75874374	     -5.61734159	      3.09447776	     27.62739846	     45.22662996	      0.00000000	      0.00000000
     36.80000000	     -4.74739360	     -3.11555909	      3.65851265	      1.07115396	      0.92024381	      0.42920457	      4.89293378	     -7.36322829	    -12.94515534	     45.84171782	     45.84171782	      0.80346624	     -4.37420732	    -23.93010274	     26.60352954	     -2.76517291	     -3.48232235	     27.16759065	     27.16759065	      9.01296448	    -15.90461440	      7.74816095	     -8.28638692	      6.41987037	      5.02872827	     35.79703703	    -16.24637525	     -5.96302942	    103.67379274	     44.29564561	      0.00000000	      0.00000000	    -11.23682506	     -5.62039365	      2.95380471	     28.44800853	     45.27595035	      0.00000000	      0.00000000
     36.81150000	     -4.87848211	     -3.18638424	      3.39297698	      1.07122593	      0.92107593	      0.42713887	      7.22981698	     -7.73102971	    -11.67734009	     49.71245007	     49.71245007	     -1.66793620	     -6.55243417	    -21.94053502	     25.96205384	     -2.87746905	     -3.91570233	     27.04764236	     27.04764236	      9.53386302	    -15.52084619	      7.21675598	     -8.08838456	      6.53368296	      5.17487584	     33.76877066	    -16.28377755	     -7.29555996	    100.56417306	     44.44692302	      0.00000000	      0.00000000	     -9.98112455	     -5.80595752	      2.22902669	     30.27557557	     45.41242520	      0.00000000	      0.00000000
     36.82300000	     -4.83480539	     -3.16883223	      3.20458286	      1.07123356	      0.92204144	      0.42504686	      9.40701595	     -8.29488818	    -10.85561765	     53.53642048	     53.53642048	     -3.06291876	     -7.29966405	    -17.73939366	     25.07291668	     -2.86785442	     -4.29531275	     26.80241736	     26.80241736	      9.94120200	    -15.15472074	      6.35869000	     -8.18662814	      6.60428226	      4.58999659	     32.23343335	    -15.25866874	     -8.47816921	     97.40609103	     44.61910509	      0.00000000	      0.00000000	     -9.13737841	     -5.91220683	      0.70009539	     32.86054101	     45.65856587	      0.00000000	      0.00000000
     36.83450000	     -4.80424312	     -3.20419335	      2.99072346	      1.07102330	      0.92296326	      0.42318609	     11.65860434	     -8.64528982	     -9.98014953	     57.10941614	     57.10941614	     -3.99390537	     -8.25381873	    -12.87901443	     24.21793397	     -2.90769345	     -4.60093752	     26.55359570	     26.55359570	     10.31351633	    -14.91943511	      5.68501934	     -8.29526432	      6.72475979	      4.21955740	     30.60046700	    -14.97108722	     -8.84458654	     94.22202552	     44.77643073	      0.00000000	      0.00000000	     -7.82583528	     -5.97204700	     -0.80629474	     34.77491587	     45.88769881	      0.00000000	      0.00000000
     36.84600000	     -4.84267803	     -3.24201899	      2.73372496	      1.07064958	      0.92385786	      0.42158195	     13.88755309	     -8.79028993	     -9.04417439	     60.06557591	     60.06557591	     -5.73302442	    -10.23530996	    -11.24601690	     23.40692925	     -2.95798654	     -4.91288595	     26.23577498	     26.23577498	     10.78614028	    -14.60363219	      5.39999333	     -8.32498555	      6.81564007	      4.38741834	     28.58024161	    -15.19988765	     -9.53624860	     91.44743523	     44.88602413	      0.00000000	      0.00000000	     -6.02804184	     -6.19138154	     -1.08368979	     36.08488717	     45.95074117	      0.00000000	      0.00000000
     36.85750000	     -4.74633011	     -3.31186621	      2.49971043	      1.07024399	      0.92486558	      0.42009282	     15.93214316	     -8.93937621	     -8.44815623	     62.75823053	     62.75823053	     -6.60032708	    -11.87000848	     -8.93432341	     22.50485481	     -3.06552612	     -5.25255669	     26.00775453	     26.00775453	     11.23602496	    -14.29854765	      5.01775896	     -8.55208726	      7.01315041	      4.38762914	     26.80595126	    -14.84309909	    -10.56855554	     88.02962420	     45.02780305	      0.00000000	      0.00000000	     -4.22075557	     -6.54121667	     -1.36149141	     37.75508342	     46.01279328	      0.00000000	      0.00000000
     36.86900000	     -4.66117750	     -3.32993117	      2.23289840	      1.06974048	      0.92586326	      0.41882802	     18.09697614	     -9.10775998	     -7.89587063	     65.37843755	     65.37843755	     -5.99861734	    -12.58686661	     -3.83506044	     21.54756392	     -3.11896392	     -5.60927331	     25.63925723	     25.63925723	     11.51682087	    -14.05647652	      4.34750700	     -8.73598763	      7.03848547	      3.55810282	     25.98271275	    -13.50492856	    -11.84367336	     83.11031516	     45.23475846	      0.00000000	      0.00000000	     -3.22059254	     -7.15772906	     -1.69995003	     40.33918560	     46.07366905	      0.00000000	      0.00000000
     36.88050000	     -4.65009136	     -3.37612057	      1.91604445	      1.06914018	      0.92684953	      0.41772021	     20.17249827	     -9.10771274	     -7.38044398	     67.30275312	     67.30275312	     -6.49200725	    -14.39236057	     -2.99084781	     20.63035819	     -3.18309068	     -5.92011683	     25.19305106	     25.19305106	     11.90367398	    -13.85907824	      4.18209242	     -8.91379750	      7.14595391	      3.84092359	     23.97441997	    -13.88099704	    -12.13498431	     80.31432843	     45.32845048	      0.00000000	      0.00000000	     -1.13367620	     -7.48725824	     -1.88592399	     41.77270337	     46.12644430	      0.00000000	      0.00000000
     36.89200000	     -4.59446732	     -3.42628005	      1.56995452	      1.06850028	      0.92796280	      0.41683739	     22.15960486	     -9.10193722	     -7.03022359	     68.86363076	     68.86363076	     -6.60311877	    -15.88551094	     -1.99029333	     19.66837910	     -3.28257402	     -6.31598005	     24.74260603	     24.74260603	     12.16748521	    -13.61343084	      3.99338196	     -9.13619909	      7.20568518	      4.04281504	     22.25509036	    -13.93034602	    -12.81213446	     76.62682567	     45.46449767	      0.00000000	      0.00000000	      0.86667076	     -7.92874753	     -1.94689731	     43.37184700	     46.16663581	      0.00000000	      0.00000000
     36.90350000	     -4.51734793	     -3.49428761	      1.26708797	      1.06796161	      0.92893964	      0.41607912	     24.07903606	     -9.05894173	     -6.80548928	     70.15705774	     70.15705774	     -5.67444125	    -16.76787645	      0.40399631	     18.64742482	     -3.37755306	     -6.64505158	     24.24437610	     24.24437610	     12.50922201	    -13.38192628	      3.41931862	     -9.24077312	      7.30570817	      3.29477462	     21.98586310	    -12.74941762	    -14.09664176	     70.45975286	     45.70026672	      0.00000000	      0.00000000	      2.13736114	     -8.89687049	     -1.49820162	     45.60504777	     46.15827207	      0.00000000	      0.00000000
     36.91500000	     -4.45805782	     -3.55237968	      0.89881005	      1.06734539	      0.92995697	      0.41551268	     25.95475782	     -9.00039379	     -6.64057904	     71.01287570	     71.01287570	     -4.85038376	    -17.46706389	      2.11475190	     17.60147948	     -3.45900612	     -7.00312817	     23.65201282	     23.65201282	     12.75287417	    -13.22723891	      3.08171753	     -9.43517004	      7.36703838	      3.13410301	     20.91590537	    -12.66638033	    -14.33292196	     65.80992352	     45.84119057	      0.00000000	      0.00000000	      3.77532241	     -9.64694994	     -1.36903730	     47.70963855	     46.19391031	      0.00000000	      0.00000000
     36.92650000	     -4.41170094	     -3.63321483	      0.57348152	      1.06674283	      0.93088936	      0.41511299	     27.67479852	     -8.93112924	     -6.64772865	     71.35023208	     71.35023208	     -4.35922922	    -18.06181202	      2.24167124	     16.59047339	     -3.54824255	     -7.27393746	     23.09309130	     23.09309130	     13.09355183	    -13.05923530	      3.03953579	     -9.70860539	      7.45404091	      3.10990224	     18.91920459	    -12.72054355	    -14.30032441	     63.86957782	     45.89417543	      0.00000000	      0.00000000	      5.79183478	    -10.23075761	     -1.60671799	     48.90337826	     46.24923179	      0.00000000	      0.00000000
